# xmcd CD database file
#
# Track frame offsets:
#	150
#	16656
#	36284
#	52422
#	66710
#	82910
#	94264
#	107277
#	120927
#	137995
#	151514
#	164002
#
# Disc length: 2432 seconds
#
# Revision: 0
# Processed by: cddbd v1.5.1PL0 Copyright (c) Steve Scherf et al.
# Submitted via: CDex 1.40Beta9
#
DISCID=98097e0c
DTITLE=マミメリ - Atlantis
DYEAR=2004
DGENRE=Instrumental
TTITLE0=プラトンの夢（prologue）
TTITLE1=首都ポセイドニア
TTITLE2=銀色のオリハルコン
TTITLE3=ヘラクレスの柱
TTITLE4=サントリーニの壁画
TTITLE5=イリヤッド
TTITLE6=地中海の音楽
TTITLE7=盗掘者と考古学者
TTITLE8=ハインリヒ・シュリーマン
TTITLE9=ゼウスの怒り
TTITLE10=空飛ぶ乗り物
TTITLE11=地上の楽園（epilogue）
EXTD=YEAR: 2004 ID3G: 33
EXTT0=
EXTT1=
EXTT2=
EXTT3=
EXTT4=
EXTT5=
EXTT6=
EXTT7=
EXTT8=
EXTT9=
EXTT10=
EXTT11=
PLAYORDER=
